<svg width="20" height="19" viewBox="0 0 20 19" fill="none" xmlns="http://www.w3.org/2000/svg">
<path d="M14.3905 3.3404L12.6214 0.309785C12.5373 0.165628 12.399 0.060636 12.2373 0.0189723C12.0765 -0.0210248 11.904 0.00230683 11.7607 0.088134L6.35272 3.3329L14.3905 3.3404Z" fill="#7264D6"/>
<path d="M2.49982 4.16616C2.04152 4.16616 1.66655 3.79119 1.66655 3.33289C1.66655 2.87459 2.04152 2.49962 2.49982 2.49962H5.30795L8.09109 0.833069H2.49982C1.26658 0.833069 0.241649 1.733 0.0416637 2.91625C0.0249982 2.98291 0 3.04958 0 3.12457V15.832C0 17.2069 1.12492 18.3318 2.49982 18.3318H16.6655C17.5821 18.3318 18.332 17.5819 18.332 16.6653V14.9987H16.2488C14.1823 14.9987 12.4991 13.3155 12.4991 11.249C12.4991 9.18247 14.1823 7.49926 16.2488 7.49926H18.332V5.83271C18.332 4.91611 17.5821 4.16616 16.6655 4.16616H2.49982ZM15.8322 2.49962C15.8322 1.65801 15.2072 0.95806 14.3906 0.849734L15.8322 3.33289V2.49962Z" fill="#7264D6"/>
<path d="M19.3735 8.74915H16.2488C14.8705 8.74915 13.7489 9.87073 13.7489 11.249C13.7489 12.6272 14.8705 13.7488 16.2488 13.7488H19.3735C19.7185 13.7488 19.9985 13.4688 19.9985 13.1238V9.3741C19.9985 9.02913 19.7185 8.74915 19.3735 8.74915ZM16.2488 12.0822C15.7888 12.0822 15.4155 11.7089 15.4155 11.249C15.4155 10.789 15.7888 10.4157 16.2488 10.4157C16.7087 10.4157 17.082 10.789 17.082 11.249C17.082 11.7089 16.7087 12.0822 16.2488 12.0822Z" fill="#7264D6"/>
</svg>
