<svg width="20" height="20" viewBox="0 0 20 20" fill="none" xmlns="http://www.w3.org/2000/svg">
<path d="M11.7908 9.8946C14.5188 9.8946 16.7377 7.67523 16.7377 4.9473C16.7377 2.21937 14.5188 0 11.7908 0C9.06291 0 6.84354 2.21937 6.84354 4.9473C6.84354 7.67523 9.06291 9.8946 11.7908 9.8946ZM11.2049 2.03931V1.90494C11.2049 1.58114 11.467 1.31905 11.7908 1.31905C12.1143 1.31905 12.3767 1.58114 12.3767 1.90494V2.04009C13.0739 2.18969 13.5985 2.81074 13.5985 3.55209C13.5985 3.8755 13.336 4.13798 13.0126 4.13798C12.6888 4.13798 12.4267 3.8755 12.4267 3.55209C12.4267 3.34546 12.2584 3.17712 12.0518 3.17712H11.5264C11.3198 3.17712 11.1514 3.34546 11.1514 3.55209C11.1514 3.67044 11.2081 3.78293 11.3034 3.85324L11.7908 4.21415L12.9751 5.09065C13.3642 5.37852 13.5985 5.83903 13.6016 6.32337V6.32884C13.6044 6.74209 13.4462 7.13191 13.1556 7.42603C12.94 7.64437 12.6705 7.79085 12.3767 7.85256V7.98966C12.3767 8.31347 12.1143 8.57556 11.7908 8.57556C11.467 8.57556 11.2049 8.31347 11.2049 7.98966V7.85451C10.919 7.79358 10.6562 7.65297 10.4437 7.44283C10.1495 7.15261 9.98628 6.76514 9.98394 6.35189C9.98198 6.02847 10.2425 5.76443 10.5659 5.76248H10.5698C10.8917 5.76248 11.1538 6.02261 11.1557 6.34486C11.1565 6.54707 11.3192 6.71749 11.5327 6.71749C11.8564 6.71553 11.7358 6.71624 12.0572 6.71436C12.2652 6.71272 12.4315 6.54394 12.4299 6.33665V6.33119C12.4291 6.21401 12.3724 6.1023 12.2779 6.03238L11.7908 5.67186L10.6062 4.79536C10.214 4.50476 9.97964 4.03994 9.97964 3.55209C9.97964 2.80917 10.5058 2.18773 11.2049 2.03931Z" fill="#439F90"/>
<path d="M3.77472 12.7097C3.62454 12.4494 3.29093 12.3588 3.02896 12.5099L0.272981 14.1008C0.0120231 14.2519 -0.0775017 14.5856 0.0731515 14.8469L2.8899 19.7256C3.04067 19.9864 3.37424 20.076 3.63567 19.9254L6.39164 18.3341C6.65299 18.1834 6.74217 17.8496 6.59147 17.5883L3.77472 12.7097Z" fill="#439F90"/>
<path d="M19.5664 11.7359C19.3012 11.3675 18.788 11.2843 18.42 11.5496C17.3037 12.3538 15.1601 13.8982 14.9898 14.0213C14.9113 14.0881 14.8289 14.1486 14.7429 14.2021C14.4059 14.4142 14.0149 14.5275 13.6067 14.5275H10.8003C10.4768 14.5275 10.2144 14.2654 10.2144 13.9416C10.2144 13.6174 10.4772 13.3557 10.8003 13.3557H13.8016C14.2426 13.3557 14.5957 12.9885 14.5773 12.5468C14.5601 12.1276 14.2024 11.8027 13.7829 11.8027H11.4982C11.3436 11.639 11.1741 11.489 10.9924 11.355C10.3679 10.8945 9.59604 10.6223 8.76056 10.6223C7.27512 10.6223 5.7971 11.5582 5.18425 12.8073L7.58095 16.9582H12.0767C12.9595 16.9582 13.8289 16.7324 14.5941 16.2922C14.8593 16.1399 15.1433 15.9567 15.4511 15.7356C16.7408 14.8091 19.3778 12.8842 19.3797 12.8831C19.7484 12.6182 19.832 12.1042 19.5664 11.7359Z" fill="#439F90"/>
</svg>
