<svg width="20" height="20" viewBox="0 0 20 20" fill="none" xmlns="http://www.w3.org/2000/svg">
<path d="M7.2914 14.6756V18.5404C7.2914 18.8103 7.46472 19.0495 7.72137 19.1345C7.78553 19.1553 7.85136 19.1653 7.91635 19.1653C8.11134 19.1653 8.29966 19.0737 8.41965 18.9103L10.6803 15.8339L7.2914 14.6756Z" fill="#DA6464"/>
<path d="M19.7361 0.115899C19.5445 -0.0199247 19.2928 -0.0382567 19.0845 0.0709021L0.335846 9.86187C0.114196 9.97769 -0.0166284 10.2143 0.00170361 10.4635C0.0208689 10.7135 0.18669 10.9268 0.422507 11.0076L5.63463 12.7892L16.7347 3.29817L8.14529 13.6466L16.8805 16.6322C16.9455 16.6539 17.0138 16.6655 17.0821 16.6655C17.1955 16.6655 17.308 16.6347 17.4071 16.5747C17.5654 16.4781 17.6729 16.3156 17.7004 16.1331L19.9919 0.717522C20.0261 0.484206 19.9278 0.252556 19.7361 0.115899Z" fill="#DA6464"/>
</svg>
